<?xml version="1.0" encoding="UTF-8"?>
<svg width="128" height="128" viewBox="0 0 128 128" fill="none" xmlns="http://www.w3.org/2000/svg">
    <!-- 定义渐变 -->
    <defs>
        <!-- 背景渐变 -->
        <linearGradient id="bgGradient" x1="0%" y1="0%" x2="100%" y2="100%">
            <stop offset="0%" style="stop-color:#00d6a3"/>
            <stop offset="100%" style="stop-color:#00b38a"/>
        </linearGradient>
        <!-- 光晕效果 -->
        <filter id="glow" x="-50%" y="-50%" width="200%" height="200%">
            <feGaussianBlur in="SourceGraphic" stdDeviation="4"/>
        </filter>
        <!-- 阴影效果 -->
        <filter id="shadow" x="-20%" y="-20%" width="140%" height="140%">
            <feDropShadow dx="2" dy="2" stdDeviation="3" flood-color="#000" flood-opacity="0.3"/>
        </filter>
    </defs>

    <!-- 背景圆形 -->
    <circle cx="64" cy="64" r="60" fill="url(#bgGradient)" filter="url(#shadow)"/>
    
    <!-- 装饰性圆环 -->
    <circle cx="64" cy="64" r="54" 
            stroke="white" stroke-width="2" 
            stroke-dasharray="4,4"
            fill="none"
            opacity="0.3"/>
    
    <!-- 主循环箭头 -->
    <g filter="url(#glow)">
        <path d="M64 32c-17.673 0-32 14.327-32 32 0 17.673 14.327 32 32 32 13.255 0 24.637-8.044 29.456-19.5" 
              stroke="white" 
              stroke-width="8" 
              stroke-linecap="round"
              fill="none"/>
        
        <!-- 箭头头部 -->
        <path d="M98 64.5L93.456 76.5L84 69.5L98 64.5Z" 
              fill="white"/>
    </g>
    
    <!-- 中心气泡 -->
    <circle cx="64" cy="64" r="16" 
            fill="white"
            filter="url(#shadow)"/>
    
    <!-- 加号符号 -->
    <g>
        <path d="M58 64H70M64 58V70" 
              stroke="#00b38a" 
              stroke-width="4" 
              stroke-linecap="round"/>
    </g>
    
    <!-- 装饰性小圆点 -->
    <circle cx="30" cy="64" r="3" fill="white" opacity="0.6"/>
    <circle cx="98" cy="64" r="3" fill="white" opacity="0.6"/>
    <circle cx="64" cy="30" r="3" fill="white" opacity="0.6"/>
    <circle cx="64" cy="98" r="3" fill="white" opacity="0.6"/>
</svg> 